<svg xmlns="http://www.w3.org/2000/svg" width="365.42" height="400.24" viewBox="0 0 365.42 400.24">
  <defs>
    <style>
      .cls-1 {
        opacity: 0.2;
      }

      .cls-2 {
        fill: #fff;
      }

      .cls-3 {
        font-size: 48.33px;
      }

      .cls-3, .cls-4 {
        fill: #14ead8;
        font-family: PermanentMarker-Regular, Permanent Marker;
      }

      .cls-4 {
        font-size: 34.33px;
      }
    </style>
  </defs>
  <g id="Layer_2" data-name="Layer 2">
    <g id="Layer_1-2" data-name="Layer 1">
      <g class="cls-1">
        <circle class="cls-2" cx="144" cy="112.29" r="5.09"/>
        <path class="cls-2" d="M154.17,94.38a5.09,5.09,0,1,0,1.07-7.11A5.09,5.09,0,0,0,154.17,94.38Z"/>
        <circle class="cls-2" cx="140.07" cy="95.27" r="5.09"/>
        <path class="cls-2" d="M104.57,93.9a77.7,77.7,0,0,0,35.46,48,2.69,2.69,0,0,0,3.7-.92l5.81-9.65h0L182.59,76.5a2.69,2.69,0,0,0-.15-3l-.14-.19a2.71,2.71,0,0,0-2.71-.82L117.46,87.92h0l-10.93,2.71A2.7,2.7,0,0,0,104.57,93.9Zm17.29,24.37A72.22,72.22,0,0,1,110.5,95.2l5.69-1.41a66.62,66.62,0,0,0,27.36,37.06l-3,5A72,72,0,0,1,121.86,118.27Zm52.75-39-28.27,46.93a61.06,61.06,0,0,1-24.9-33.73Z"/>
      </g>
      <text class="cls-3" transform="matrix(0.36, -0.93, 0.93, 0.36, 39.69, 169.78)"> </text>
      <text class="cls-3" transform="translate(45.68 153.96) rotate(-62.37)"> </text>
      <text class="cls-3" transform="matrix(0.59, -0.8, 0.8, 0.59, 52.95, 138.92)">T</text>
      <text class="cls-3" transform="matrix(0.72, -0.69, 0.69, 0.72, 67.95, 118.17)">a</text>
      <text class="cls-3" transform="translate(86.65 100.33) rotate(-34.73)">s</text>
      <text class="cls-3" transform="translate(104.02 88.14) rotate(-26.21)">t</text>
      <text class="cls-3" transform="matrix(0.95, -0.31, 0.31, 0.95, 123.81, 78.46)">y</text>
      <text class="cls-3" transform="translate(141.23 72.71) rotate(-11.22)"> </text>
      <text class="cls-3" transform="translate(157.71 69.24) rotate(-3.77)">f</text>
      <text class="cls-3" transform="matrix(0.99, 0.1, -0.1, 0.99, 178.31, 67.41)">o</text>
      <text class="cls-3" transform="translate(207 70.21) rotate(17.29)">o</text>
      <text class="cls-3" transform="translate(234.6 78.96) rotate(27.51)">d</text>
      <text class="cls-3" transform="matrix(0.82, 0.58, -0.58, 0.82, 254.86, 89.66)"> </text>
      <text class="cls-3" transform="translate(268.69 99.41) rotate(41.99)"> </text>
      <text class="cls-3" transform="matrix(0.66, 0.75, -0.75, 0.66, 281.33, 110.71)"> </text>
      <text class="cls-3" transform="matrix(0.57, 0.82, -0.82, 0.57, 292.56, 123.38)"> </text>
      <text class="cls-3" transform="matrix(0.47, 0.88, -0.88, 0.47, 302.25, 137.27)"> </text>
      <text class="cls-3" transform="matrix(0.36, 0.93, -0.93, 0.36, 310.25, 152.18)"> </text>
      <text class="cls-3" transform="translate(316.45 167.92) rotate(75.42)"> </text>
      <text class="cls-3" transform="translate(320.77 184.31) rotate(82.13)"> </text>
      <text class="cls-3" transform="matrix(0.02, 1, -1, 0.02, 323.14, 201.04)"> </text>
      <text class="cls-3" transform="matrix(-0.09, 1, -1, -0.09, 323.56, 218)"> </text>
      <text class="cls-3" transform="matrix(-0.21, 0.98, -0.98, -0.21, 322.04, 234.89)"> </text>
      <text class="cls-3" transform="translate(318.56 251.44) rotate(108.78)"> </text>
      <text class="cls-3" transform="matrix(-0.43, 0.9, -0.9, -0.43, 313.16, 267.49)"> </text>
      <text class="cls-3" transform="translate(305.92 282.79) rotate(122.2)"> </text>
      <text class="cls-3" transform="translate(296.95 297.14) rotate(128.86)"> </text>
      <text class="cls-3" transform="translate(286.35 310.38) rotate(135.51)"> </text>
      <text class="cls-3" transform="matrix(-0.79, 0.61, -0.61, -0.79, 274.33, 322.27)"> </text>
      <text class="cls-3" transform="matrix(-0.86, 0.52, -0.52, -0.86, 260.98, 332.72)"> </text>
      <text class="cls-3" transform="matrix(-0.91, 0.41, -0.41, -0.91, 246.53, 341.52)"> </text>
      <text class="cls-3" transform="translate(231.15 348.59) rotate(162.25)"> </text>
      <text class="cls-3" transform="matrix(-0.98, 0.19, -0.19, -0.98, 215.04, 353.81)"> </text>
      <text class="cls-3" transform="translate(198.44 357.09) rotate(175.65)"> </text>
      <text class="cls-3" transform="matrix(-1, -0.04, 0.04, -1, 181.56, 358.43)"> </text>
      <text class="cls-3" transform="matrix(-0.99, -0.15, 0.15, -0.99, 164.62, 357.83)"> </text>
      <text class="cls-3" transform="translate(147.88 355.27) rotate(-164.39)"> </text>
      <text class="cls-3" transform="matrix(-0.92, -0.38, 0.38, -0.92, 131.58, 350.77)"> </text>
      <text class="cls-3" transform="matrix(-0.87, -0.49, 0.49, -0.87, 115.9, 344.39)"> </text>
      <text class="cls-3" transform="translate(101.07 336.22) rotate(-144.28)"> </text>
      <text class="cls-3" transform="matrix(-0.74, -0.67, 0.67, -0.74, 87.28, 326.37)"> </text>
      <text class="cls-3" transform="matrix(-0.66, -0.75, 0.75, -0.66, 74.74, 315)"> </text>
      <text class="cls-3" transform="matrix(-0.56, -0.83, 0.83, -0.56, 63.57, 302.24)"> </text>
      <text class="cls-3" transform="translate(53.99 288.3) rotate(-117.64)"> </text>
      <text class="cls-3" transform="matrix(-0.36, -0.93, 0.93, -0.36, 46.08, 273.33)"> </text>
      <text class="cls-3" transform="matrix(0.75, -0.66, 0.66, 0.75, 99.8, 137.8)"> </text>
      <text class="cls-3" transform="matrix(0.82, -0.57, 0.57, 0.82, 112.46, 126.59)"> </text>
      <text class="cls-3" transform="matrix(0.88, -0.47, 0.47, 0.88, 126.37, 116.92)"> </text>
      <text class="cls-3" transform="translate(141.3 108.94) rotate(-21.28)"> </text>
      <text class="cls-3" transform="matrix(0.97, -0.25, 0.25, 0.97, 157.06, 102.74)"> </text>
      <text class="cls-3" transform="translate(173.44 98.4) rotate(-7.99)"> </text>
      <text class="cls-4" transform="matrix(1, -0.02, 0.02, 1, 190.21, 96)">c</text>
      <text class="cls-4" transform="translate(206.8 95.41) rotate(6)">o</text>
    </g>
  </g>
</svg>
